G04 MADE WITH FRITZING*
G04 WWW.FRITZING.ORG*
G04 DOUBLE SIDED*
G04 HOLES PLATED*
G04 CONTOUR ON CENTER OF CONTOUR VECTOR*
%ASAXBY*%
%FSLAX23Y23*%
%MOIN*%
%OFA0B0*%
%SFA1.0B1.0*%
%ADD10C,0.074000*%
%ADD11C,0.062992*%
%ADD12C,0.075000*%
%ADD13C,0.039370*%
%ADD14R,0.062992X0.062992*%
%ADD15C,0.024000*%
%ADD16R,0.001000X0.001000*%
%LNCOPPER0*%
G90*
G70*
G54D10*
X577Y83D03*
X477Y73D03*
X377Y83D03*
X277Y73D03*
X177Y83D03*
X77Y73D03*
X577Y83D03*
X477Y73D03*
X377Y83D03*
X277Y73D03*
X177Y83D03*
X77Y73D03*
X577Y83D03*
X477Y73D03*
X377Y83D03*
X277Y73D03*
X177Y83D03*
X77Y73D03*
G54D11*
X5777Y1173D03*
X5876Y1173D03*
X5777Y1173D03*
X5876Y1173D03*
X5577Y373D03*
X5676Y373D03*
X5577Y373D03*
X5676Y373D03*
X5377Y773D03*
X5476Y773D03*
X5377Y773D03*
X5476Y773D03*
X5177Y1173D03*
X5276Y1173D03*
X5177Y1173D03*
X5276Y1173D03*
X4977Y373D03*
X5076Y373D03*
X4977Y373D03*
X5076Y373D03*
X4777Y773D03*
X4876Y773D03*
X4777Y773D03*
X4876Y773D03*
X4577Y1173D03*
X4676Y1173D03*
X4577Y1173D03*
X4676Y1173D03*
X4377Y373D03*
X4476Y373D03*
X4377Y373D03*
X4476Y373D03*
X4177Y773D03*
X4276Y773D03*
X4177Y773D03*
X4276Y773D03*
X3977Y1173D03*
X4076Y1173D03*
X3977Y1173D03*
X4076Y1173D03*
X3777Y373D03*
X3876Y373D03*
X3777Y373D03*
X3876Y373D03*
X3577Y773D03*
X3676Y773D03*
X3577Y773D03*
X3676Y773D03*
X3377Y1173D03*
X3476Y1173D03*
X3377Y1173D03*
X3476Y1173D03*
X3177Y373D03*
X3276Y373D03*
X3177Y373D03*
X3276Y373D03*
X2977Y773D03*
X3076Y773D03*
X2977Y773D03*
X3076Y773D03*
X2777Y1173D03*
X2876Y1173D03*
X2777Y1173D03*
X2876Y1173D03*
X2577Y373D03*
X2676Y373D03*
X2577Y373D03*
X2676Y373D03*
X2377Y773D03*
X2476Y773D03*
X2377Y773D03*
X2476Y773D03*
X2177Y1173D03*
X2276Y1173D03*
X2177Y1173D03*
X2276Y1173D03*
X1977Y373D03*
X2076Y373D03*
X1977Y373D03*
X2076Y373D03*
X1777Y773D03*
X1876Y773D03*
X1777Y773D03*
X1876Y773D03*
X1577Y1173D03*
X1676Y1173D03*
X1577Y1173D03*
X1676Y1173D03*
X1377Y373D03*
X1476Y373D03*
X1377Y373D03*
X1476Y373D03*
X1177Y773D03*
X1276Y773D03*
X1177Y773D03*
X1276Y773D03*
X977Y1173D03*
X1076Y1173D03*
X977Y1173D03*
X1076Y1173D03*
X777Y373D03*
X876Y373D03*
X777Y373D03*
X876Y373D03*
G54D12*
X177Y173D03*
X577Y173D03*
X177Y173D03*
X577Y173D03*
X177Y273D03*
X577Y273D03*
X177Y273D03*
X577Y273D03*
X177Y573D03*
X577Y573D03*
X177Y573D03*
X577Y573D03*
X177Y673D03*
X577Y673D03*
X177Y673D03*
X577Y673D03*
X177Y973D03*
X577Y973D03*
X177Y973D03*
X577Y973D03*
X177Y1073D03*
X577Y1073D03*
X177Y1073D03*
X577Y1073D03*
G54D13*
X778Y1072D03*
X879Y971D03*
X977Y971D03*
X1077Y1072D03*
X1178Y1072D03*
X1276Y672D03*
X1377Y672D03*
X1478Y1072D03*
X1579Y971D03*
X1677Y672D03*
X1777Y672D03*
X1878Y971D03*
X1976Y1072D03*
X2077Y574D03*
X2178Y574D03*
X2279Y1072D03*
X2377Y971D03*
X2477Y574D03*
X2578Y574D03*
X2676Y971D03*
X2777Y672D03*
X2878Y574D03*
X2979Y574D03*
X3077Y672D03*
X3179Y1072D03*
X3279Y271D03*
X3378Y271D03*
X3477Y1072D03*
X3576Y973D03*
X3679Y271D03*
X3778Y271D03*
X3877Y973D03*
X3977Y672D03*
X4076Y271D03*
X4179Y271D03*
X4278Y672D03*
X4377Y572D03*
X4476Y271D03*
X4579Y271D03*
X4679Y572D03*
X4778Y1072D03*
X4877Y172D03*
X4976Y172D03*
X5079Y1072D03*
X5178Y973D03*
X5277Y172D03*
X5377Y172D03*
X5476Y973D03*
X5579Y672D03*
X5678Y172D03*
X5777Y172D03*
X5876Y672D03*
X5977Y1073D03*
X5977Y573D03*
X5977Y673D03*
X5977Y173D03*
X5977Y273D03*
X5977Y973D03*
G54D14*
X5777Y1173D03*
X5777Y1173D03*
X5577Y373D03*
X5577Y373D03*
X5377Y773D03*
X5377Y773D03*
X5177Y1173D03*
X5177Y1173D03*
X4977Y373D03*
X4977Y373D03*
X4777Y773D03*
X4777Y773D03*
X4577Y1173D03*
X4577Y1173D03*
X4377Y373D03*
X4377Y373D03*
X4177Y773D03*
X4177Y773D03*
X3977Y1173D03*
X3977Y1173D03*
X3777Y373D03*
X3777Y373D03*
X3577Y773D03*
X3577Y773D03*
X3377Y1173D03*
X3377Y1173D03*
X3177Y373D03*
X3177Y373D03*
X2977Y773D03*
X2977Y773D03*
X2777Y1173D03*
X2777Y1173D03*
X2577Y373D03*
X2577Y373D03*
X2377Y773D03*
X2377Y773D03*
X2177Y1173D03*
X2177Y1173D03*
X1977Y373D03*
X1977Y373D03*
X1777Y773D03*
X1777Y773D03*
X1577Y1173D03*
X1577Y1173D03*
X1377Y373D03*
X1377Y373D03*
X1177Y773D03*
X1177Y773D03*
X977Y1173D03*
X977Y1173D03*
X777Y373D03*
X777Y373D03*
G54D15*
X778Y1053D02*
X778Y400D01*
D02*
X879Y952D02*
X876Y400D01*
D02*
X977Y990D02*
X977Y1146D01*
D02*
X1077Y1091D02*
X1076Y1146D01*
D02*
X1178Y800D02*
X1178Y1053D01*
D02*
X1276Y691D02*
X1276Y746D01*
D02*
X1377Y653D02*
X1377Y400D01*
D02*
X1478Y1053D02*
X1476Y400D01*
D02*
X1579Y990D02*
X1578Y1146D01*
D02*
X1677Y691D02*
X1676Y1146D01*
D02*
X1777Y691D02*
X1777Y746D01*
D02*
X1878Y952D02*
X1876Y800D01*
D02*
X1976Y1053D02*
X1977Y400D01*
D02*
X2077Y555D02*
X2076Y400D01*
D02*
X2178Y1146D02*
X2178Y593D01*
D02*
X2278Y1091D02*
X2277Y1146D01*
D02*
X2377Y952D02*
X2377Y800D01*
D02*
X2477Y593D02*
X2476Y746D01*
D02*
X2578Y555D02*
X2578Y400D01*
D02*
X2676Y952D02*
X2676Y400D01*
D02*
X2777Y691D02*
X2777Y1146D01*
D02*
X2878Y593D02*
X2876Y1146D01*
D02*
X2979Y593D02*
X2978Y746D01*
D02*
X3076Y691D02*
X3076Y746D01*
D02*
X3179Y1053D02*
X3178Y400D01*
D02*
X3278Y290D02*
X3277Y346D01*
D02*
X3378Y290D02*
X3377Y1146D01*
D02*
X3477Y1091D02*
X3476Y1146D01*
D02*
X3577Y800D02*
X3576Y954D01*
D02*
X3679Y290D02*
X3676Y746D01*
D02*
X3877Y954D02*
X3876Y400D01*
D02*
X3778Y290D02*
X3778Y346D01*
D02*
X3977Y691D02*
X3977Y1146D01*
D02*
X4076Y290D02*
X4076Y1146D01*
D02*
X4179Y290D02*
X4178Y746D01*
D02*
X4278Y691D02*
X4276Y746D01*
D02*
X4377Y554D02*
X4377Y400D01*
D02*
X4476Y290D02*
X4476Y346D01*
D02*
X4579Y290D02*
X4578Y1146D01*
D02*
X4678Y591D02*
X4676Y1146D01*
D02*
X4778Y1053D02*
X4778Y800D01*
D02*
X4877Y191D02*
X4876Y746D01*
D02*
X4976Y191D02*
X4977Y346D01*
D02*
X5079Y1053D02*
X5076Y400D01*
D02*
X5178Y992D02*
X5178Y1146D01*
D02*
X5277Y191D02*
X5276Y1146D01*
D02*
X5476Y954D02*
X5476Y800D01*
D02*
X5377Y191D02*
X5377Y746D01*
D02*
X5579Y653D02*
X5578Y400D01*
D02*
X5678Y191D02*
X5676Y346D01*
D02*
X5777Y191D02*
X5777Y1146D01*
D02*
X5876Y691D02*
X5876Y1146D01*
D02*
X78Y272D02*
X78Y104D01*
D02*
X149Y273D02*
X78Y272D01*
D02*
X177Y144D02*
X177Y114D01*
D02*
X277Y573D02*
X277Y104D01*
D02*
X206Y573D02*
X277Y573D01*
D02*
X378Y672D02*
X378Y114D01*
D02*
X206Y673D02*
X378Y672D01*
D02*
X478Y972D02*
X478Y104D01*
D02*
X206Y973D02*
X478Y972D01*
D02*
X677Y1172D02*
X677Y173D01*
D02*
X677Y173D02*
X601Y104D01*
D02*
X177Y1172D02*
X677Y1172D01*
D02*
X177Y1101D02*
X177Y1172D01*
G54D16*
X541Y120D02*
X613Y120D01*
X540Y119D02*
X613Y119D01*
X540Y118D02*
X613Y118D01*
X540Y117D02*
X613Y117D01*
X540Y116D02*
X613Y116D01*
X540Y115D02*
X613Y115D01*
X540Y114D02*
X613Y114D01*
X540Y113D02*
X613Y113D01*
X540Y112D02*
X613Y112D01*
X540Y111D02*
X613Y111D01*
X540Y110D02*
X613Y110D01*
X540Y109D02*
X613Y109D01*
X540Y108D02*
X613Y108D01*
X540Y107D02*
X613Y107D01*
X540Y106D02*
X613Y106D01*
X540Y105D02*
X613Y105D01*
X540Y104D02*
X613Y104D01*
X540Y103D02*
X574Y103D01*
X580Y103D02*
X613Y103D01*
X540Y102D02*
X570Y102D01*
X584Y102D02*
X613Y102D01*
X540Y101D02*
X567Y101D01*
X586Y101D02*
X613Y101D01*
X540Y100D02*
X566Y100D01*
X588Y100D02*
X613Y100D01*
X540Y99D02*
X564Y99D01*
X590Y99D02*
X613Y99D01*
X540Y98D02*
X563Y98D01*
X591Y98D02*
X613Y98D01*
X540Y97D02*
X562Y97D01*
X592Y97D02*
X613Y97D01*
X540Y96D02*
X561Y96D01*
X593Y96D02*
X613Y96D01*
X540Y95D02*
X560Y95D01*
X594Y95D02*
X613Y95D01*
X540Y94D02*
X560Y94D01*
X594Y94D02*
X613Y94D01*
X540Y93D02*
X559Y93D01*
X595Y93D02*
X613Y93D01*
X540Y92D02*
X559Y92D01*
X595Y92D02*
X613Y92D01*
X540Y91D02*
X558Y91D01*
X596Y91D02*
X613Y91D01*
X540Y90D02*
X558Y90D01*
X596Y90D02*
X613Y90D01*
X540Y89D02*
X557Y89D01*
X597Y89D02*
X613Y89D01*
X540Y88D02*
X557Y88D01*
X597Y88D02*
X613Y88D01*
X540Y87D02*
X557Y87D01*
X597Y87D02*
X613Y87D01*
X540Y86D02*
X557Y86D01*
X597Y86D02*
X613Y86D01*
X540Y85D02*
X557Y85D01*
X597Y85D02*
X613Y85D01*
X540Y84D02*
X557Y84D01*
X597Y84D02*
X613Y84D01*
X540Y83D02*
X556Y83D01*
X597Y83D02*
X613Y83D01*
X540Y82D02*
X557Y82D01*
X597Y82D02*
X613Y82D01*
X540Y81D02*
X557Y81D01*
X597Y81D02*
X613Y81D01*
X540Y80D02*
X557Y80D01*
X597Y80D02*
X613Y80D01*
X540Y79D02*
X557Y79D01*
X597Y79D02*
X613Y79D01*
X540Y78D02*
X557Y78D01*
X597Y78D02*
X613Y78D01*
X540Y77D02*
X558Y77D01*
X596Y77D02*
X613Y77D01*
X540Y76D02*
X558Y76D01*
X596Y76D02*
X613Y76D01*
X540Y75D02*
X558Y75D01*
X596Y75D02*
X613Y75D01*
X540Y74D02*
X559Y74D01*
X595Y74D02*
X613Y74D01*
X540Y73D02*
X559Y73D01*
X595Y73D02*
X613Y73D01*
X540Y72D02*
X560Y72D01*
X594Y72D02*
X613Y72D01*
X540Y71D02*
X561Y71D01*
X593Y71D02*
X613Y71D01*
X540Y70D02*
X562Y70D01*
X592Y70D02*
X613Y70D01*
X540Y69D02*
X562Y69D01*
X591Y69D02*
X613Y69D01*
X540Y68D02*
X564Y68D01*
X590Y68D02*
X613Y68D01*
X540Y67D02*
X565Y67D01*
X589Y67D02*
X613Y67D01*
X540Y66D02*
X566Y66D01*
X587Y66D02*
X613Y66D01*
X540Y65D02*
X568Y65D01*
X586Y65D02*
X613Y65D01*
X540Y64D02*
X571Y64D01*
X583Y64D02*
X613Y64D01*
X540Y63D02*
X613Y63D01*
X540Y62D02*
X613Y62D01*
X540Y61D02*
X613Y61D01*
X540Y60D02*
X613Y60D01*
X540Y59D02*
X613Y59D01*
X540Y58D02*
X613Y58D01*
X540Y57D02*
X613Y57D01*
X540Y56D02*
X613Y56D01*
X540Y55D02*
X613Y55D01*
X540Y54D02*
X613Y54D01*
X540Y53D02*
X613Y53D01*
X540Y52D02*
X613Y52D01*
X540Y51D02*
X613Y51D01*
X540Y50D02*
X613Y50D01*
X540Y49D02*
X613Y49D01*
X540Y48D02*
X613Y48D01*
X540Y47D02*
X613Y47D01*
D02*
G04 End of Copper0*
M02*