; NON-PLATED HOLES START AT T1
; THROUGH (PLATED) HOLES START AT T100
M48
INCH
T1C0.086614
T100C0.031497
T101C0.040000
T102C0.035000
T103C0.015748
%
T1
X007774Y000727
X000774Y012727
X058774Y000727
X059774Y008727
T100
X024759Y007727
X045774Y011727
X049774Y003727
X021774Y011727
X019774Y003727
X020759Y003727
X016759Y011727
X056759Y003727
X037774Y003727
X009774Y011727
X018759Y007727
X035774Y007727
X046759Y011727
X047774Y007727
X012759Y007727
X015774Y011727
X028759Y011727
X039774Y011727
X014759Y003727
X058759Y011727
X041774Y007727
X023774Y007727
X042759Y007727
X017774Y007727
X034759Y011727
X013774Y003727
X057774Y011727
X052759Y011727
X027774Y011727
X030759Y007727
X029774Y007727
X026759Y003727
X011774Y007727
X050759Y003727
X053774Y007727
X031774Y003727
X048759Y007727
X010759Y011727
X032759Y003727
X055774Y003727
X036759Y007727
X007774Y003727
X040759Y011727
X008759Y003727
X022759Y011727
X025774Y003727
X033774Y011727
X051774Y011727
X043774Y003727
X038759Y003727
X054759Y007727
X044759Y003727
T101
X000774Y000727
X001774Y000827
X002774Y000727
X005774Y000827
X003774Y000827
X004774Y000727
T102
X005774Y010727
X005774Y005727
X001774Y002727
X005774Y002727
X001774Y005727
X001774Y001727
X005774Y001727
X005774Y006727
X005774Y009727
X001774Y010727
X001774Y009727
X001774Y006727
T103
X034768Y010722
X057771Y001719
X033777Y002711
X008788Y009713
X044763Y002711
X019760Y010722
X056779Y001719
X021779Y005741
X040757Y002711
X027769Y006718
X036790Y002711
X013769Y006718
X041787Y002711
X029788Y005741
X030765Y006718
X058763Y006716
X047776Y010722
X015788Y009713
X055787Y006716
X012760Y006718
X059774Y002727
X059774Y005727
X042779Y006716
X020769Y005741
X022788Y010722
X049760Y001719
X017774Y006718
X046785Y005724
X039766Y006716
X038774Y009730
X051782Y009730
X024774Y005741
X009765Y009713
X045793Y002711
X052774Y001719
X037782Y002711
X023765Y009713
X011783Y010722
X007779Y010722
X043771Y005724
X031793Y010722
X059774Y001727
X053765Y001719
X048768Y001719
X050790Y010722
X032785Y002711
X035760Y009730
X059774Y009727
X018783Y009713
X026760Y009713
X054757Y009730
X059774Y006727
X059774Y010727
X028779Y005741
X016765Y006718
X010774Y010722
X014779Y010722
X025783Y005741
T00
M30
